# xmcd
#
# Track frame offsets:
#	150
#	12287
#	23419
#	35590
#	47455
#	58560
#	90696
#	104839
#	127482
#	145280
#	156874
#	166288
#	178435
#	191807
#	205788
#	217010
#	230102
#	240512
#
# Disc length: 3342 seconds
#
# Revision: 1
# Processed by: cddbd v1.5.2PL0 Copyright (c) Steve Scherf et al.
# Submitted via: audiograbber 1.83.01
#
DISCID=0b0d0c12
DTITLE=Simply Rhythm and Blues - CD2
DYEAR=2014
DGENRE=Blues
TTITLE0=Jimmy Reed - Bright lights, big city
TTITLE1=Johnny Winter - Gangster of love
TTITLE2=Billy Boy Arnold - I wish you would
TTITLE3=Art Neville - Cha dooky-doo
TTITLE4=K. C. Douglas - Mercury boogie
TTITLE5=Santana - Every day I have the blues (Demo)
TTITLE6=T-Bone Walker - Come back to me, baby blues
TTITLE7=The Animals - Boom, boom (Live)
TTITLE8=Chris Kenner - I like it like that [Parts 1 and 2]
TTITLE9=Bobby 'Blue' Bland - Turn on your lovelight
TTITLE10=Bill Doggett - (Let's do) The hully-gully twist
TTITLE11=Hank Ballard and The Midniters - Annie had a baby
TTITLE12=Etta James - The wallflower
TTITLE13=Billy "The Kid" Emerson - When it rains it pours
TTITLE14=Professor Longhair - Professor Longhair blues
TTITLE15=Big Joe Turner (Blues Singer) - Corrine, Corrina
TTITLE16=The Yardbirds - A certain girl
TTITLE17=Dr. John - One night late
EXTD=
EXTT0=
EXTT1=
EXTT2=
EXTT3=
EXTT4=
EXTT5=
EXTT6=
EXTT7=
EXTT8=
EXTT9=
EXTT10=
EXTT11=
EXTT12=
EXTT13=
EXTT14=
EXTT15=
EXTT16=
EXTT17=
PLAYORDER=
